<svg aria-hidden="true" style="position: absolute; width: 0; height: 0; overflow: hidden;" version="1.1" xmlns="http://www.w3.org/2000/svg" xmlns:xlink="http://www.w3.org/1999/xlink">
  <defs>
    <symbol id="insta-icon" viewBox="0 0 32 32">
        <path d="M16 8.923c-3.908 0-7.077 3.168-7.077 7.077s3.168 7.077 7.077 7.077v0c3.908 0 7.077-3.168 7.077-7.077s-3.168-7.077-7.077-7.077v0zM16 21.231c-2.889 0-5.231-2.342-5.231-5.231s2.342-5.231 5.231-5.231c2.889 0 5.231 2.342 5.231 5.231v0c-0.009 2.885-2.346 5.222-5.23 5.231h-0.001zM22.769 0.923h-13.538c-4.588 0-8.308 3.719-8.308 8.308v0 13.538c0 4.588 3.719 8.308 8.308 8.308v0h13.538c4.588 0 8.308-3.719 8.308-8.308v0-13.538c0-4.588-3.719-8.308-8.308-8.308v0zM29.231 22.769c0 3.569-2.893 6.462-6.462 6.462v0h-13.538c-3.569 0-6.462-2.893-6.462-6.462v0-13.538c0-3.569 2.893-6.462 6.462-6.462v0h13.538c3.569 0 6.462 2.893 6.462 6.462v0zM25.538 8c0 0.85-0.689 1.538-1.538 1.538s-1.538-0.689-1.538-1.538v0c0-0.85 0.689-1.538 1.538-1.538s1.538 0.689 1.538 1.538v0z"></path>
    </symbol>
    <symbol id="fb-icon" viewBox="0 0 32 32">
        <path d="M24.262 1.245c-1.298-0.146-2.802-0.23-4.325-0.23-0.050 0-0.101 0-0.151 0l0.008-0c-4.948 0-8.022 3.151-8.022 8.224v3.445h-4.157c0 0 0 0 0 0-0.406 0-0.735 0.329-0.736 0.735v5.665c0.001 0.406 0.33 0.735 0.736 0.735 0 0 0 0 0 0h4.157v11.359c0.001 0.406 0.329 0.734 0.735 0.735h5.853c0 0 0 0 0 0 0.406 0 0.735-0.329 0.736-0.735v-11.36h4.143c0.372-0.002 0.679-0.278 0.729-0.636l0-0.004 0.732-5.664c0.004-0.029 0.006-0.063 0.006-0.097 0-0.405-0.329-0.734-0.734-0.734-0.001 0-0.002 0-0.003 0h-4.874v-2.881c0-1.428 0.287-2.024 2.071-2.024h3.001c0.406-0.001 0.734-0.329 0.735-0.735v-5.069c-0.002-0.371-0.278-0.678-0.636-0.728l-0.004-0zM23.43 6.307l-2.265 0.001c-3.174 0-3.542 1.995-3.542 3.495v3.619c0.001 0.406 0.329 0.734 0.735 0.735h4.776l-0.543 4.193h-4.232c-0.406 0.001-0.735 0.33-0.735 0.736 0 0 0 0 0 0v0 11.354h-4.382v-11.354c0 0 0 0 0 0 0-0.406-0.33-0.736-0.736-0.736-0 0-0.001 0-0.001 0h-4.153v-4.193h4.154c0.406 0 0.736-0.33 0.736-0.736v0-4.182c0-4.228 2.45-6.753 6.551-6.753 1.485 0 2.825 0.082 3.637 0.152z"></path>
    </symbol>
    <symbol id="phone-call" viewBox="0 0 32 32">
        <path d="M27.655 22.957l-0.173-0.216c-1.372-1.734-2.52-2.637-3.503-2.756-0.85-0.116-1.673 0.472-2.548 1.078l-0.935 0.584c-0.092 0.048-0.2 0.093-0.312 0.128l-0.014 0.004c-0.547 0.154-1.927 0.245-2.708-0.47-0.91-0.832-2.32-2.354-3.418-3.685-1.048-1.377-2.2-3.095-2.801-4.176-0.508-0.916-0.083-2.197 0.201-2.672 0.056-0.093 0.13-0.185 0.21-0.276l0.825-0.761c0.012-0.012 0.017-0.027 0.028-0.038 0.008-0.008 0.021-0.005 0.030-0.012 0.745-0.628 1.514-1.274 1.62-2.105 0.123-0.976-0.483-2.296-1.858-4.030l-0.168-0.215c-0.851-1.091-2.137-2.74-3.985-2.469-0.727 0.108-1.376 0.356-2.046 0.776-0.006 0.004-0.010 0.012-0.016 0.016-0.005 0.004-0.012 0.004-0.017 0.008l-0.932 0.69c-0.010 0.006-0.015 0.018-0.024 0.026-0.007 0.006-0.017 0.008-0.025 0.014q-0.162 0.136-0.323 0.28c-0.945 0.843-2.992 3.29-1.596 7.815 0.901 2.923 2.76 6.333 5.388 9.883l-0.025 0.021 1.449 1.805 0.012-0.009c2.85 3.37 5.75 5.976 8.407 7.553 1.773 1.054 3.322 1.402 4.597 1.402 1.677 0 2.879-0.603 3.481-0.995l0.379-0.253c0.043-0.030 0.073-0.071 0.104-0.108l0.825-0.622c0.010-0.008 0.015-0.018 0.024-0.026 0.004-0.004 0.010-0.003 0.016-0.007 0.587-0.536 0.994-1.097 1.276-1.763 0.732-1.705-0.578-3.338-1.445-4.42zM28.12 26.958c-0.22 0.517-0.541 0.957-1.005 1.384l-1.228 0.924c-1.112 0.722-3.49 1.616-6.943-0.435-2.657-1.577-5.582-4.244-8.461-7.712l-0.779-0.984c-2.71-3.595-4.617-7.037-5.517-9.955-1.17-3.793 0.304-5.828 1.29-6.706q0.15-0.135 0.3-0.259l0.003-0.004 0.895-0.663c0.464-0.308 1.013-0.528 1.605-0.621l0.023-0.003c1.239-0.186 2.247 1.12 2.987 2.070l0.173 0.22c1.536 1.937 1.684 2.858 1.636 3.234-0.053 0.418-0.688 0.952-1.248 1.423l-0.079 0.067-0.006 0.009-0.012 0.007-0.852 0.788c-0.006 0.005-0.008 0.012-0.014 0.018s-0.016 0.010-0.021 0.016c-0.121 0.133-0.232 0.28-0.33 0.437l-0.007 0.013c-0.48 0.801-0.931 2.457-0.218 3.738 0.623 1.12 1.808 2.89 2.898 4.319 1.138 1.381 2.59 2.95 3.532 3.81 0.705 0.643 1.686 0.86 2.536 0.86 0.454 0 0.872-0.063 1.188-0.153q0.249-0.073 0.516-0.204c0.010-0.005 0.016-0.014 0.026-0.021 0.006-0.003 0.014-0.001 0.019-0.005l0.99-0.619c0.031-0.021 0.053-0.050 0.080-0.076l0.011 0.013c0.61-0.422 1.304-0.918 1.739-0.846 0.385 0.046 1.26 0.417 2.799 2.36l0.177 0.222c0.75 0.935 1.776 2.215 1.297 3.334z"></path>
    </symbol>
    <symbol id="whyus-icon-1" viewBox="0 0 32 32">
        <path d="M16.067 0.073c-1.145 0-2.215 0.521-3.127 1.375s-1.692 2.044-2.343 3.485q-0.204 0.454-0.391 0.94c-0.238-0.042-0.584-0.088-0.933-0.124l-0.078-0.007c-0.329-0.036-0.728-0.062-1.131-0.072l-0.020-0c-1.12-0.027-2.143 0.087-3.040 0.359-1.196 0.363-2.182 1.028-2.755 2.020s-0.656 2.18-0.372 3.396c0.284 1.217 0.924 2.487 1.847 3.772q0.29 0.404 0.618 0.809c-0.184 0.224-0.386 0.488-0.582 0.757l-0.036 0.052c-0.923 1.284-1.563 2.555-1.847 3.772s-0.2 2.404 0.372 3.396c0.573 0.991 1.56 1.657 2.756 2.020s2.616 0.444 4.189 0.287q0.495-0.049 1.010-0.131 0.183 0.476 0.391 0.941c0.651 1.441 1.431 2.631 2.343 3.485s1.982 1.376 3.127 1.376 2.215-0.522 3.127-1.376c0.911-0.855 1.692-2.044 2.342-3.485q0.21-0.465 0.393-0.941 0.513 0.081 1.008 0.131c1.574 0.157 2.995 0.076 4.19-0.287 1.196-0.362 2.183-1.028 2.756-2.020s0.655-2.179 0.372-3.396c-0.284-1.216-0.924-2.487-1.847-3.771-0.232-0.321-0.434-0.585-0.644-0.842l0.026 0.033q0.321-0.396 0.618-0.809c0.924-1.284 1.564-2.555 1.847-3.772s0.201-2.404-0.372-3.396c-0.573-0.992-1.56-1.658-2.755-2.020-0.897-0.271-1.92-0.385-3.040-0.359-0.423 0.011-0.822 0.037-1.216 0.078l0.066-0.006q-0.495 0.049-1.010 0.131c-0.166-0.438-0.297-0.748-0.437-1.053l0.047 0.113c-0.651-1.441-1.431-2.631-2.343-3.485s-1.982-1.376-3.128-1.376zM16.065 1.345c0.764 0 1.513 0.336 2.256 1.032 0.742 0.696 1.452 1.749 2.052 3.079q0.146 0.326 0.279 0.657c-1.46 0.325-3.007 0.823-4.588 1.489-1.58-0.665-3.127-1.164-4.587-1.488q0.135-0.339 0.279-0.658c0.601-1.331 1.311-2.384 2.053-3.080s1.492-1.031 2.256-1.031zM7.64 6.941q0.185-0.001 0.375 0.003 0.508 0.011 1.052 0.065 0.349 0.036 0.711 0.087c-0.449 1.428-0.791 3.015-1.006 4.717-1.367 1.036-2.572 2.127-3.583 3.229q-0.222-0.281-0.431-0.571c-0.852-1.185-1.409-2.327-1.641-3.318s-0.148-1.807 0.235-2.469c0.382-0.662 1.047-1.142 2.021-1.438 0.639-0.193 1.404-0.298 2.265-0.305zM24.492 6.942c0.861 0.008 1.626 0.113 2.265 0.306 0.975 0.295 1.639 0.776 2.022 1.438s0.465 1.479 0.234 2.469-0.788 2.132-1.641 3.318q-0.209 0.29-0.431 0.572c-1.011-1.103-2.215-2.193-3.582-3.229-0.214-1.702-0.556-3.29-1.005-4.717q0.361-0.053 0.71-0.088c0.412-0.044 0.89-0.068 1.374-0.068 0.019 0 0.038 0 0.057 0h-0.003zM21.089 7.327c0.318 0.954 0.606 2.118 0.809 3.311l0.020 0.146c-1.203-0.826-2.59-1.64-4.035-2.355l-0.202-0.091c1.181-0.441 2.327-0.778 3.408-1.011zM11.045 7.327c1.080 0.233 2.225 0.571 3.407 1.011-1.647 0.808-3.034 1.621-4.356 2.523l0.121-0.078c0.223-1.339 0.511-2.503 0.878-3.631l-0.049 0.175zM16.066 8.994c1.266 0.561 2.296 1.094 3.292 1.678l-0.154-0.084c1.050 0.606 2.036 1.252 2.951 1.921 0.123 1.127 0.189 2.304 0.189 3.516 0 1.211-0.066 2.388-0.189 3.514-0.836 0.619-1.799 1.254-2.796 1.837l-0.155 0.084c-0.842 0.501-1.872 1.034-2.933 1.512l-0.206 0.083c-1.267-0.561-2.297-1.094-3.293-1.678l0.154 0.084c-1.151-0.667-2.114-1.301-3.040-1.983l0.090 0.063c-0.12-1.052-0.188-2.271-0.188-3.506 0-0.003 0-0.007 0-0.010v0c0-1.212 0.065-2.389 0.188-3.516 0.836-0.619 1.799-1.254 2.796-1.837l0.155-0.084c0.842-0.5 1.872-1.033 2.932-1.511l0.206-0.083zM16.153 10.912l-3.648 2.252 3.648 2.251 3.647-2.251zM8.601 13.581c-0.055 0.732-0.086 1.585-0.086 2.446s0.031 1.714 0.092 2.559l-0.007-0.113c-0.937-0.772-1.779-1.572-2.562-2.428l-0.017-0.019c0.8-0.874 1.642-1.674 2.537-2.412l0.042-0.034zM23.533 13.58c0.937 0.772 1.779 1.572 2.561 2.427l0.017 0.019c-0.799 0.874-1.641 1.673-2.536 2.411l-0.042 0.034c0.055-0.732 0.086-1.585 0.086-2.445s-0.031-1.714-0.092-2.559l0.007 0.113zM11.683 14.153v4.445l3.831 2.364v-4.446zM20.619 14.155l-3.831 2.364v4.444l3.831-2.364zM5.191 17.007c1.011 1.103 2.216 2.193 3.583 3.229 0.214 1.702 0.556 3.289 1.005 4.716q-0.361 0.052-0.71 0.087c-1.452 0.145-2.719 0.058-3.693-0.238s-1.639-0.776-2.022-1.438c-0.381-0.662-0.465-1.478-0.234-2.469s0.789-2.132 1.641-3.318q0.209-0.29 0.431-0.57zM26.942 17.007q0.226 0.286 0.431 0.57c0.852 1.185 1.409 2.327 1.641 3.318s0.148 1.807-0.235 2.469c-0.382 0.662-1.047 1.143-2.021 1.438s-2.24 0.383-3.693 0.238q-0.355-0.036-0.709-0.087c0.449-1.428 0.791-3.016 1.005-4.718 1.367-1.035 2.571-2.126 3.582-3.228zM21.918 21.268c-0.223 1.339-0.511 2.503-0.878 3.632l0.049-0.175c-1.336-0.296-2.475-0.644-3.576-1.068l0.169 0.057c1.647-0.808 3.035-1.621 4.357-2.523l-0.121 0.078zM10.216 21.268c1.201 0.824 2.588 1.638 4.032 2.355l0.203 0.091c-0.932 0.367-2.071 0.715-3.242 0.979l-0.165 0.031c-0.318-0.953-0.605-2.117-0.808-3.31l-0.020-0.146zM16.103 21.327l0.047 0.029 0.047-0.029zM16.065 24.447c1.581 0.665 3.127 1.164 4.588 1.488q-0.132 0.332-0.279 0.66c-0.601 1.33-1.31 2.383-2.053 3.079-0.742 0.696-1.491 1.031-2.255 1.031s-1.513-0.335-2.256-1.031-1.452-1.749-2.053-3.079q-0.146-0.327-0.279-0.66c1.46-0.324 3.007-0.823 4.588-1.488z"></path>
    </symbol>
    <symbol id="whyus-icon-2" viewBox="0 0 32 32">
        <path d="M9.755 11.589h-9.892c-0.304 0-0.55 0.235-0.55 0.527v3.164c0 0.292 0.246 0.528 0.55 0.528h0.549v12.127c0 0.292 0.246 0.528 0.55 0.528h7.693c0.304 0 0.55-0.236 0.55-0.528v-12.127h0.549c0.304 0 0.549-0.236 0.549-0.528v-3.163c0-0.292-0.246-0.528-0.549-0.528zM3.71 21.607v-1.055h3.297v-1.055h-3.297v-1.055h4.397v6.854h-4.397v-2.636h1.099v-1.055zM8.106 17.389h-4.947c-0.304 0-0.549 0.236-0.549 0.528v7.908c0 0.292 0.246 0.528 0.549 0.528h4.947v1.055h-6.596v-11.6h6.595zM9.205 14.753h-8.792v-2.109h8.793zM17.037 11.688v-3.855c0-0.301-0.246-0.543-0.55-0.543h-0.549v-2.713h1.099v-1.087h-6.045v1.087h3.847v2.713h-0.55c-0.001 0-0.002 0-0.004 0-0.3 0-0.544 0.243-0.545 0.543v3.855c-1.252 0.252-2.198 1.348-2.198 2.659v13.571c0 0.301 0.246 0.543 0.55 0.543h6.594c0.001 0 0.002 0 0.004 0 0.3 0 0.544-0.243 0.545-0.543v-13.57c0-1.31-0.945-2.407-2.198-2.659zM14.838 8.377h1.099v3.257h-1.099zM14.288 12.718h2.198c0.909 0 1.648 0.731 1.648 1.628v0.543h-5.495v-0.543c0-0.898 0.74-1.628 1.648-1.628zM18.136 25.203h-5.496v-1.084h2.198v-1.087h-2.198v-7.056h5.495zM12.64 27.375v-1.086h5.495v1.086zM31.085 10.914h-9.274c-0.285 0.005-0.515 0.237-0.515 0.523 0 0.003 0 0.006 0 0.009v-0 16.484c0 0.295 0.231 0.532 0.515 0.532h9.274c0.284 0 0.515-0.238 0.515-0.531v-16.484c0-0.003 0-0.006 0-0.009 0-0.286-0.23-0.519-0.515-0.523h-0zM30.569 27.397h-8.243v-15.42h8.243z"></path>
        <path d="M7.556 21.712h-1.374v0.675h1.374zM17.174 23.062h-1.374v1.35h1.374zM15.457 21.712c1.325 0 2.404-1.059 2.404-2.362s-1.078-2.362-2.404-2.362c-1.326 0-2.404 1.060-2.404 2.362s1.078 2.362 2.404 2.362zM15.456 18.169c0.662 0 1.202 0.53 1.202 1.181s-0.54 1.181-1.203 1.181c-0.662 0-1.202-0.53-1.202-1.181s0.539-1.181 1.202-1.181zM25.159 16.313h2.576c0.995 0 1.804-0.756 1.804-1.686s-0.809-1.687-1.804-1.687h-2.576c-0.994 0-1.803 0.756-1.803 1.687s0.809 1.687 1.803 1.687zM28.508 14.627c0 0.398-0.347 0.723-0.773 0.723h-0.772v-1.446h0.772c0.426 0 0.773 0.324 0.773 0.723zM25.159 13.904h0.772v1.446h-0.772c-0.426 0-0.773-0.324-0.773-0.723s0.347-0.723 0.773-0.723zM25.159 21.712h2.576c0.995 0 1.804-0.908 1.804-2.024s-0.809-2.025-1.804-2.025h-2.576c-0.994 0-1.803 0.908-1.803 2.024s0.809 2.024 1.803 2.024zM28.508 19.687c0 0.478-0.347 0.867-0.773 0.867h-0.772v-1.734h0.772c0.426 0 0.773 0.389 0.773 0.868zM25.159 18.82h0.772v1.735h-0.772c-0.426 0-0.773-0.389-0.773-0.868s0.347-0.868 0.773-0.868zM25.159 26.436h2.576c0.995 0 1.804-0.908 1.804-2.024s-0.809-2.025-1.804-2.025h-2.576c-0.994 0-1.803 0.908-1.803 2.024s0.809 2.025 1.803 2.025zM28.508 24.412c0 0.479-0.347 0.868-0.773 0.868h-0.772v-1.735h0.772c0.426 0 0.773 0.389 0.773 0.868zM25.159 23.545h0.772v1.735h-0.772c-0.426 0-0.773-0.389-0.773-0.868s0.347-0.868 0.773-0.868z"></path>
    </symbol>
    <symbol id="whyus-icon-3" viewBox="0 0 32 32">
        <path d="M29.687 10.327c-0.237-0.219-0.539-0.371-0.874-0.424l-0.010-0.001c-0.071-0.011-0.153-0.017-0.237-0.017-0.261 0-0.508 0.062-0.727 0.172l0.009-0.004-6.313 3.080c-0.033 0.020-0.072 0.032-0.114 0.032-0.059 0-0.113-0.023-0.152-0.061l0 0c-0.024-0.023-0.043-0.049-0.057-0.079l-0.001-0.002-3.688-7.288c-0.148-0.299-0.365-0.545-0.631-0.724l-0.007-0.004c-0.25-0.166-0.556-0.266-0.886-0.267h-0c-0.33 0.001-0.637 0.101-0.893 0.271l0.006-0.004c-0.269 0.175-0.489 0.427-0.639 0.728l-3.687 7.287c-0.015 0.032-0.035 0.059-0.059 0.081l-0 0c-0.023 0.022-0.051 0.039-0.081 0.050l-0.002 0.001q-0.046 0.015-0.093 0.010c-0.034-0.003-0.064-0.014-0.091-0.031l0.001 0-6.313-3.080c-0.21-0.108-0.459-0.172-0.722-0.172-0.081 0-0.161 0.006-0.24 0.018l0.009-0.001c-0.344 0.053-0.647 0.204-0.884 0.424l0.001-0.001c-0.251 0.231-0.44 0.526-0.542 0.86l-0.004 0.014c-0.058 0.183-0.091 0.394-0.091 0.613 0 0.158 0.017 0.312 0.050 0.46l-0.003-0.014 3.189 14.891c0.053 0.251 0.153 0.489 0.293 0.697s0.316 0.383 0.519 0.513c0.267 0.18 0.575 0.275 0.888 0.275q0.241-0.003 0.475-0.069c2.671-0.846 5.743-1.333 8.928-1.333 3.169 0 6.226 0.483 9.101 1.378l-0.217-0.058c0.227 0.072 0.465 0.093 0.7 0.060 0.235-0.031 0.462-0.115 0.667-0.247 0.21-0.136 0.384-0.308 0.519-0.509l0.004-0.006c0.141-0.209 0.243-0.447 0.297-0.701l3.175-14.891c0.033-0.139 0.052-0.298 0.052-0.461 0-0.211-0.032-0.415-0.091-0.607l0.004 0.015c-0.103-0.346-0.29-0.641-0.539-0.87l-0.001-0.001zM28.813 11.867l-3.188 14.891c-0.017 0.073-0.057 0.134-0.111 0.178l-0.001 0c-0.040 0.022-0.087 0.035-0.137 0.035-0.022 0-0.044-0.003-0.065-0.007l0.002 0c-2.786-0.881-5.99-1.389-9.313-1.389s-6.527 0.508-9.539 1.45l0.226-0.061c-0.021 0.007-0.044 0.011-0.069 0.011-0.048 0-0.092-0.015-0.128-0.040l0.001 0c-0.030-0.020-0.055-0.046-0.074-0.075l-0.001-0.001c-0.020-0.029-0.034-0.063-0.041-0.1l-0-0.002-3.187-14.891c-0.003-0.016-0.005-0.035-0.005-0.054 0-0.068 0.021-0.131 0.057-0.183l-0.001 0.001c0.023-0.032 0.053-0.058 0.087-0.077l0.001-0.001c0.032-0.017 0.069-0.028 0.109-0.030l0.001-0 0.1 0.027 6.325 3.093c0.208 0.106 0.453 0.169 0.713 0.169 0.198 0 0.388-0.036 0.563-0.102l-0.011 0.004c0.415-0.153 0.762-0.473 0.972-0.895l3.687-7.288c0.020-0.043 0.050-0.078 0.087-0.105l0.001-0.001c0.035-0.024 0.078-0.039 0.125-0.039s0.090 0.015 0.126 0.039l-0.001-0c0.038 0.027 0.068 0.062 0.087 0.104l0.001 0.002 3.687 7.287c0.211 0.422 0.558 0.741 0.973 0.895s0.867 0.128 1.265-0.069l6.325-3.093c0.030-0.016 0.066-0.025 0.103-0.025 0.062 0 0.118 0.025 0.159 0.065l-0-0c0.037 0.033 0.065 0.075 0.079 0.123l0 0.002c0.009 0.027 0.014 0.058 0.014 0.091 0 0.021-0.002 0.042-0.006 0.062l0-0.002zM20.75 22.315c-0.020 0.207-0.111 0.39-0.247 0.527l0-0c-0.138 0.137-0.317 0.213-0.503 0.215h-0.075c-1.178-0.138-2.542-0.217-3.925-0.217s-2.747 0.079-4.089 0.232l0.164-0.015c-0.023 0.003-0.050 0.004-0.077 0.004-0.182 0-0.348-0.069-0.473-0.181l0.001 0.001c-0.153-0.139-0.255-0.332-0.276-0.549l-0-0.003c-0.002-0.022-0.003-0.049-0.003-0.075 0-0.199 0.065-0.383 0.174-0.532l-0.002 0.003c0.118-0.162 0.296-0.274 0.501-0.302l0.004-0c1.223-0.151 2.639-0.237 4.075-0.237s2.852 0.086 4.243 0.254l-0.168-0.016c0.196 0.024 0.375 0.131 0.501 0.297s0.188 0.38 0.173 0.596z"></path>
    </symbol>
    <symbol id="bcg-star" viewBox="0 0 32 32">
        <path d="M9.964 1.136l8.156 9.994 12.812-1.482-9.996 8.152 1.484 12.812-8.154-9.994-12.812 1.484 9.994-8.154z"></path>
    </symbol>
    <symbol id="close-button" viewBox="0 0 32 32">
        <path d="M28.965 0.521c0.324-0.335 0.777-0.543 1.279-0.543 0.982 0 1.778 0.796 1.778 1.778 0 0.502-0.208 0.955-0.542 1.278l-0 0-15.479 15.479-15.479-15.479c-0.335-0.324-0.543-0.777-0.543-1.279 0-0.982 0.796-1.778 1.778-1.778 0.502 0 0.955 0.208 1.278 0.542l0 0 12.965 12.965z"></path>
        <path d="M31.479 28.965c0.335 0.324 0.543 0.777 0.543 1.279 0 0.982-0.796 1.778-1.778 1.778-0.502 0-0.955-0.208-1.278-0.542l-0-0-12.965-12.965-12.965 12.965c-0.324 0.335-0.777 0.543-1.279 0.543-0.982 0-1.778-0.796-1.778-1.778 0-0.502 0.208-0.955 0.542-1.278l0-0 15.479-15.479z"></path>
    </symbol>
    <symbol id="carousel-arrow" viewBox="0 0 32 32">
        <path d="M0.944 17.257c-0.322-0.322-0.52-0.766-0.52-1.257s0.199-0.935 0.52-1.257l11.314-11.314c0.324-0.335 0.777-0.543 1.279-0.543 0.982 0 1.778 0.796 1.778 1.778 0 0.502-0.208 0.955-0.542 1.278l-0.001 0-10.057 10.057 10.057 10.057c0.335 0.324 0.543 0.777 0.543 1.279 0 0.982-0.796 1.778-1.778 1.778-0.502 0-0.955-0.208-1.278-0.542l-0-0zM32 17.778h-29.799v-3.556h29.799z"></path>
    </symbol>
    <symbol id="mobile-menu" viewBox="0 0 46 32">
        <path d="M45.714 29.726c0 1.257-1.019 2.274-2.274 2.274h-18.309c-1.256 0-2.274-1.018-2.274-2.274s1.018-2.274 2.274-2.274h18.309c1.257 0 2.274 1.017 2.274 2.274zM45.714 16c0 1.257-1.019 2.274-2.274 2.274h-41.166c-1.256 0-2.274-1.018-2.274-2.274s1.018-2.274 2.274-2.274h41.166c1.257 0 2.274 1.019 2.274 2.274zM43.44 4.549c1.256 0 2.274-1.018 2.274-2.274s-1.018-2.274-2.274-2.274v0h-27.451c-1.256 0-2.274 1.018-2.274 2.274s1.018 2.274 2.274 2.274v0z"></path>
    </symbol>
  </defs>
</svg>
